<svg width="40" height="40" viewBox="0 0 40 40" fill="none" xmlns="http://www.w3.org/2000/svg">
<path fill-rule="evenodd" clip-rule="evenodd" d="M3.68324 0.101588C1.97817 0.520144 0.530757 1.96676 0.134855 3.64805C0.0172366 4.14759 0 6.23894 0 19.9993C0 33.7597 0.0172366 35.8511 0.134855 36.3506C0.553709 38.1293 2.14196 39.6297 3.92687 39.9327C4.63615 40.0532 28.1709 39.9986 29.4429 39.8737L30.2654 39.7928L32.2415 38.4691C33.3283 37.7412 34.5752 36.8452 35.0123 36.4781C37.3831 34.487 39.1142 31.5093 39.7451 28.3369C39.8863 27.6273 39.949 26.8991 39.984 25.5642C40.036 23.5792 39.9814 23.253 39.5127 22.7475C39.1535 22.3599 38.9604 22.265 37.8428 21.9263C36.4636 21.5083 34.8519 20.8643 33.5305 20.2033L32.4607 19.6682L32.4073 15.9674C32.3762 13.8164 32.3147 12.1355 32.2604 11.9536C32.0563 11.271 31.8747 10.8603 31.5977 10.4552C31.3455 10.0864 28.4642 7.08928 23.7532 2.29529C22.3544 0.87192 21.9276 0.548482 20.9933 0.204215C20.5034 0.0236341 20.3308 0.0197008 12.3218 0.00343059C5.93219 -0.00944254 4.04833 0.0119232 3.68324 0.101588ZM19.7955 1.9066L19.9907 1.95898L20.0209 5.28016C20.051 8.57997 20.0527 8.605 20.276 9.18367C20.7662 10.4541 21.5148 11.276 22.7213 11.8686C23.6941 12.3464 24.1544 12.3968 27.5711 12.3988L30.4513 12.4006V15.4295V18.4585L30.1164 18.3389C29.4103 18.0867 29.1191 18.1736 27.5934 19.0919C25.6289 20.2742 23.6075 21.1728 21.2963 21.8908C20.1561 22.2451 20.0112 22.3143 19.6384 22.6837C19.1301 23.1871 19.0199 23.5802 19.02 24.8887C19.0203 28.6955 20.0032 31.7425 22.1 34.4369C22.8409 35.3889 24.1505 36.6276 25.1717 37.3423C25.6284 37.6619 26.0687 37.9728 26.1502 38.0333C26.2678 38.1205 24.0037 38.139 15.2243 38.1227L4.15014 38.1022L3.64823 37.8666C2.94135 37.5349 2.47767 37.0815 2.17572 36.4271L1.91744 35.8672V19.9993V4.13141L2.16786 3.59503C2.30557 3.30002 2.5467 2.92429 2.70371 2.76016C3.0253 2.42376 3.67091 2.06706 4.17211 1.94888C4.53934 1.86217 19.4797 1.82185 19.7955 1.9066ZM23.9434 5.22652C25.0419 6.34514 26.6441 7.9761 27.5039 8.85085L29.067 10.4415L26.5218 10.4153C24.035 10.3898 23.9664 10.3842 23.5368 10.1726C22.9499 9.88347 22.447 9.36371 22.1589 8.74857C21.9232 8.24536 21.9223 8.23526 21.8938 5.7182C21.8782 4.32925 21.8836 3.19275 21.9058 3.19275C21.928 3.19275 22.845 4.1079 23.9434 5.22652ZM6.277 7.70406C5.97943 7.8336 5.71302 8.23633 5.71302 8.55655C5.71302 8.6598 5.77599 8.86604 5.85288 9.01498C6.11839 9.52883 6.21645 9.53991 10.497 9.53991C14.8283 9.53991 14.8551 9.53652 15.1281 8.9608C15.2056 8.7973 15.269 8.61546 15.269 8.55655C15.269 8.49764 15.2056 8.3158 15.1281 8.1523C14.8548 7.57569 14.8312 7.57283 10.4775 7.57667C7.34298 7.57944 6.50465 7.60492 6.277 7.70406ZM6.277 13.4255C5.97943 13.555 5.71302 13.9577 5.71302 14.2779C5.71302 14.6075 5.98247 15.0029 6.29656 15.1343C6.55002 15.2403 7.71933 15.2613 13.3548 15.2613C20.8451 15.2613 20.5588 15.2835 20.8438 14.6822C20.9213 14.5187 20.9847 14.3369 20.9847 14.2779C20.9847 14.219 20.9213 14.0372 20.8438 13.8737C20.5586 13.272 20.8481 13.2942 13.3354 13.2981C7.76541 13.3009 6.5109 13.3236 6.277 13.4255ZM6.277 19.1468C5.97943 19.2764 5.71302 19.6791 5.71302 19.9993C5.71302 20.3289 5.98247 20.7242 6.29656 20.8557C6.74971 21.0452 21.8234 21.0452 22.2766 20.8557C22.5907 20.7242 22.8601 20.3289 22.8601 19.9993C22.8601 19.6697 22.5907 19.2744 22.2766 19.143C21.8303 18.9563 6.70622 18.9599 6.277 19.1468ZM30.5453 20.7579C32.5417 21.9442 34.5122 22.835 36.7922 23.5816L38.0871 24.0058L38.0725 25.4604C38.0491 27.7755 37.6934 29.3184 36.7444 31.221C35.6736 33.368 34.3226 34.7658 31.4447 36.7049L29.5386 37.9892L27.5613 36.6653C25.8807 35.5401 25.4361 35.1931 24.5985 34.3528C23.4898 33.2404 22.8103 32.2809 22.1522 30.898C21.3221 29.1538 20.9854 27.5567 20.9854 25.3631V23.9775L21.8747 23.7222C23.7626 23.1802 26.81 21.8147 28.5758 20.7194C29.0425 20.43 29.4569 20.1898 29.4968 20.1856C29.5367 20.1815 30.0085 20.4391 30.5453 20.7579ZM6.277 24.8682C5.97943 24.9978 5.71302 25.4005 5.71302 25.7207C5.71302 26.0503 5.98247 26.4456 6.29656 26.5771C6.74632 26.7651 16.1111 26.7651 16.5609 26.5771C16.875 26.4456 17.1444 26.0503 17.1444 25.7207C17.1444 25.3911 16.875 24.9958 16.5609 24.8644C16.118 24.6792 6.70309 24.6826 6.277 24.8682ZM32.0588 25.7783C31.9852 25.8066 31.1717 26.579 30.251 27.4947L28.5771 29.1595L27.8817 28.4676C26.9904 27.5806 26.5419 27.4444 26.0415 27.9085C25.7754 28.1554 25.6746 28.4834 25.7591 28.8273C25.8399 29.1562 28.0016 31.3201 28.3302 31.401C28.837 31.5258 29.0303 31.3784 31.1881 29.2219C33.2856 27.1258 33.3092 27.0981 33.3092 26.7258C33.3092 26.4408 33.2495 26.283 33.0636 26.0766C32.8189 25.805 32.3504 25.6659 32.0588 25.7783ZM6.277 30.5896C5.97943 30.7192 5.71302 31.1219 5.71302 31.4421C5.71302 31.7717 5.98247 32.167 6.29656 32.2984C6.74632 32.4865 16.1111 32.4865 16.5609 32.2984C16.875 32.167 17.1444 31.7717 17.1444 31.4421C17.1444 31.1125 16.875 30.7172 16.5609 30.5858C16.118 30.4005 6.70309 30.404 6.277 30.5896Z" fill="#00A78E"/>
</svg>
