<svg width="35" height="40" viewBox="0 0 35 40" fill="none" xmlns="http://www.w3.org/2000/svg">
<path fill-rule="evenodd" clip-rule="evenodd" d="M17.4633 0.190394L17.2724 0.382194V3.772V7.1618L17.4662 7.34477C17.7183 7.58284 18.0708 7.58284 18.3229 7.34477L18.5167 7.1618V3.772V0.382194L18.3258 0.190394C18.0732 -0.0634646 17.7158 -0.0634646 17.4633 0.190394ZM12.5638 3.47304L12.3729 3.66484V5.41332V7.1618L12.5667 7.34477C12.8188 7.58284 13.1712 7.58284 13.4234 7.34477L13.6172 7.1618V5.41332V3.66484L13.4262 3.47304C13.3059 3.35205 13.1465 3.28116 12.995 3.28116C12.8435 3.28116 12.6841 3.35205 12.5638 3.47304ZM22.3628 3.47304L22.1719 3.66484L22.1744 5.40746C22.177 7.27904 22.1901 7.34524 22.5858 7.49648C22.8253 7.58792 22.9959 7.54204 23.2412 7.32015C23.4128 7.16493 23.4162 7.12757 23.4162 5.41332V3.66484L23.2253 3.47304C23.105 3.35205 22.9455 3.28116 22.794 3.28116C22.6425 3.28116 22.4831 3.35205 22.3628 3.47304ZM16.3391 8.86769C13.3687 9.37415 10.7559 11.3229 9.42373 14.0254C8.74044 15.4115 8.45557 16.6528 8.45456 18.2485C8.45301 20.7799 9.3182 22.9777 11.0276 24.7842C14.2324 28.1713 19.2943 28.7253 23.2218 26.1188C23.5212 25.9201 24.121 25.4045 24.5545 24.973C25.9849 23.5498 26.8538 21.8899 27.236 19.8507C27.3591 19.194 27.3588 17.2962 27.2353 16.6574C26.547 13.0949 24.1871 10.3407 20.8641 9.22182C19.5411 8.7764 17.7137 8.63337 16.3391 8.86769ZM19.2606 10.1636C21.0094 10.4768 22.5229 11.2924 23.7718 12.5947C24.7619 13.6271 25.4303 14.8248 25.8058 16.2393C25.9827 16.9054 26.0072 17.1505 26.0072 18.2485C26.0072 19.3545 25.9833 19.5891 25.8005 20.2788C24.7566 24.2167 21.173 26.7497 17.1316 26.4063C12.8394 26.0415 9.52686 22.2069 9.75169 17.8634C9.94658 14.0996 12.5931 11.0068 16.3002 10.2106C16.9444 10.0723 18.6036 10.0459 19.2606 10.1636ZM17.5446 12.1252C17.2713 12.2754 17.1946 12.4449 17.1946 12.8989V13.3423L16.8501 13.4746C15.8491 13.8588 15.0948 14.9729 15.0948 16.0672C15.0948 16.901 15.6382 17.9142 16.3209 18.3534C16.8348 18.6839 17.067 18.7628 17.7645 18.8442C18.4553 18.9247 18.7242 19.0401 19.0062 19.377C19.8233 20.3528 19.1584 21.8047 17.8945 21.8047C17.1132 21.8047 16.553 21.2972 16.4231 20.4716C16.3081 19.7404 15.7703 19.4724 15.3221 19.9229C15.0592 20.1871 15.0404 20.3867 15.214 21.0653C15.428 21.9014 16.1576 22.7112 16.9418 22.9829C17.1856 23.0674 17.1946 23.0858 17.1946 23.4979C17.1946 24.0155 17.2713 24.1758 17.5805 24.3045C17.7703 24.3835 17.8632 24.3835 18.053 24.3045C18.3585 24.1773 18.4389 24.0153 18.4389 23.5268C18.4389 23.2167 18.4691 23.1185 18.575 23.0834C20.0961 22.5799 20.9514 21.1368 20.5837 19.6942C20.2772 18.4919 19.4138 17.743 18.1484 17.5818C17.3924 17.4855 17.2925 17.4542 16.9722 17.2129C16.0148 16.4916 16.3692 14.9378 17.564 14.6183C18.4183 14.3899 19.3646 15.1175 19.3704 16.0074C19.3726 16.3351 19.7325 16.7244 20.0332 16.7244C20.3157 16.7244 20.6942 16.3344 20.6942 16.0434C20.6942 15.6142 20.4539 14.8849 20.1796 14.4816C19.8457 13.9907 19.489 13.7063 18.9118 13.4711L18.4778 13.2943L18.4567 12.9186C18.4308 12.4578 18.3247 12.2352 18.0767 12.1217C17.8434 12.0149 17.744 12.0155 17.5446 12.1252ZM0.485932 26.9512C0.39603 27.0415 0.30535 27.1955 0.284508 27.2934C0.201061 27.6849 -0.0583025 38.9432 0.0119238 39.1287C0.149343 39.4918 0.397274 39.5261 3.31264 39.5859L6.03459 39.6417L6.21735 39.4441C6.33766 39.3139 6.4173 39.1071 6.45066 38.8383L6.50121 38.4301L7.39596 37.9638C8.72372 37.2717 8.43201 37.2381 13.4647 38.6651C15.7548 39.3146 17.922 39.889 18.2807 39.9417C18.9887 40.0457 20.2945 40.006 21.0053 39.8587C22.2978 39.5909 22.7912 39.3525 24.9537 37.9511C32.9136 32.7927 34.6005 31.6883 34.7901 31.5109C35.0786 31.2409 35.0701 30.9201 34.7621 30.4528C34.4553 29.9873 33.9916 29.605 33.4042 29.3333C32.802 29.0546 31.7297 28.9856 31.1275 29.1867C30.9114 29.2587 29.5516 29.8805 28.1058 30.5684C25.7733 31.6782 25.4683 31.8041 25.3993 31.6863C24.8153 30.6896 23.7402 29.9345 22.5682 29.6978C22.3716 29.6582 20.9636 29.5889 19.4394 29.544C16.2437 29.4499 15.9889 29.4078 14.7114 28.7635C13.1069 27.9543 11.9572 27.6974 10.2469 27.7657C9.11623 27.8108 8.42944 27.9608 7.33864 28.401L6.67417 28.6691L6.72021 28.1176C6.77924 27.41 6.66049 27.0915 6.29489 26.9766C6.1507 26.9312 4.8332 26.8707 3.34196 26.8408C0.674291 26.7874 0.64785 26.7884 0.485932 26.9512ZM5.41173 28.2342C5.41725 28.2445 5.36095 30.363 5.2866 32.9422C5.21225 35.5215 5.14887 37.7868 5.14584 37.9763L5.14024 38.3208L3.21939 38.2668C2.16289 38.2372 1.29147 38.2052 1.28284 38.1959C1.27048 38.1824 1.54252 28.2667 1.55869 28.1425C1.56289 28.1097 5.39338 28.2009 5.41173 28.2342ZM12.436 29.2758C12.8671 29.384 13.5911 29.6636 14.2247 29.9663C15.716 30.6789 15.8907 30.7162 18.1278 30.8013C22.3326 30.9613 22.4787 30.9734 22.9632 31.1988C23.5595 31.4762 24.0636 31.9621 24.3473 32.5328C24.7213 33.285 24.7875 33.2471 23.2023 33.1891C22.4431 33.1612 20.807 33.1159 19.5666 33.0882C17.3767 33.0396 17.3056 33.0427 17.1186 33.1967C16.8554 33.4135 16.8449 33.9481 17.0996 34.1554C17.3306 34.3434 17.6902 34.3669 21.9737 34.4736L25.5473 34.5626L25.7722 34.3097C25.979 34.0771 25.995 34.0164 25.9704 33.5557L25.9437 33.0546L28.6437 31.7684C30.1286 31.0609 31.4961 30.4477 31.6826 30.4057C31.8691 30.3637 32.159 30.3507 32.3268 30.3769C32.6915 30.4338 33.3913 30.771 33.3565 30.873C33.3291 30.9535 22.7653 37.8368 22.3136 38.0686C22.1563 38.1493 21.7189 38.31 21.3414 38.4258C20.7161 38.6175 20.5417 38.6362 19.3722 38.6372L18.0889 38.6383L13.9283 37.4426C8.71393 35.9441 8.54159 35.9236 7.11233 36.6338C6.79868 36.7897 6.52929 36.9021 6.51373 36.8837C6.47594 36.839 6.66313 30.252 6.70318 30.2137C6.84052 30.0831 7.86444 29.5839 8.30182 29.4343C9.6446 28.9753 11.0283 28.9222 12.436 29.2758Z" fill="#00A78E"/>
</svg>
