<svg width="40" height="32" viewBox="0 0 40 32" fill="none" xmlns="http://www.w3.org/2000/svg">
<path fill-rule="evenodd" clip-rule="evenodd" d="M1.24519 0.0839663C0.734974 0.22031 0.433188 0.462228 0.202024 0.920153L0 1.32039L0.000781222 13.8561L0.00156244 26.3919L0.19015 26.7918C0.405923 27.2493 0.782238 27.5359 1.32808 27.6586C1.55987 27.7107 5.85433 27.7383 13.9305 27.7396L26.1815 27.7414L26.1266 27.9121C26.0964 28.006 25.9007 28.4279 25.6917 28.8499C25.2855 29.6698 25.2386 29.9178 25.4367 30.1969C25.6464 30.4925 25.8808 30.5316 26.667 30.4018C27.0602 30.337 27.4592 30.267 27.5537 30.2461C27.7011 30.2136 27.7878 30.3111 28.1626 30.931C28.677 31.7819 28.8802 31.9903 29.2043 31.9994C29.6445 32.0118 29.7697 31.8426 30.5831 30.1357C31.0117 29.2361 31.3843 28.4868 31.4109 28.4705C31.4376 28.4542 31.804 29.1598 32.2252 30.0384C32.6464 30.917 33.0691 31.7175 33.1647 31.8171C33.2859 31.9436 33.4254 31.9983 33.6264 31.9983C33.9648 31.9983 34.1371 31.8635 34.4246 31.3739C34.5393 31.1787 34.7467 30.842 34.8856 30.6257L35.138 30.2325L36.0482 30.3754C37.0896 30.5389 37.3166 30.4888 37.4984 30.0557C37.6122 29.7844 37.6003 29.747 37.0028 28.4933L36.6445 27.7414L37.4817 27.7396C38.9175 27.7364 39.4749 27.5073 39.8109 26.7827L40 26.375L39.9798 13.7686L39.9595 1.1623L39.7245 0.786971C39.5575 0.520375 39.3771 0.354572 39.1016 0.214681L38.7138 0.0176451L20.1576 0.00314696C5.63777 -0.00818934 1.52401 0.00939351 1.24519 0.0839663ZM38.4881 1.21783C38.6082 1.26286 38.7329 1.34091 38.7654 1.39134C38.8425 1.51103 38.8425 26.2095 38.7654 26.3292C38.6431 26.5191 38.2369 26.5847 37.1827 26.5847H36.0957L35.9301 26.2643C35.7704 25.9553 35.7697 25.9411 35.909 25.8677C35.9884 25.8258 36.2184 25.6251 36.42 25.4217C36.8289 25.0095 37.0299 24.4986 37.0299 23.8727C37.0299 23.6042 37.0999 23.3706 37.2838 23.0241C37.6416 22.3504 37.6415 21.7454 37.2836 21.0178C37.1156 20.6762 37.0299 20.388 37.0299 20.1642C37.0299 19.3419 36.6371 18.6723 35.8694 18.1859C35.6645 18.0562 35.4214 17.816 35.3268 17.6499C35.1144 17.2768 34.6027 16.8128 34.2375 16.6622C34.0861 16.5998 33.7121 16.5284 33.4063 16.5036C33.0057 16.4711 32.7261 16.3945 32.4053 16.2294C31.7798 15.9074 31.1398 15.9079 30.4514 16.231C30.1221 16.3856 29.7807 16.4774 29.4169 16.5091C28.6813 16.5733 28.1171 16.8511 27.789 17.3108C27.4659 17.7635 27.0594 18.164 26.6585 18.4242C26.1763 18.7374 25.9353 19.2062 25.8639 19.9703C25.8193 20.4463 25.7468 20.7156 25.5775 21.0322C25.3855 21.3912 25.3507 21.5452 25.3507 22.0347C25.3507 22.5376 25.3838 22.6756 25.6046 23.0919C25.7996 23.4599 25.8585 23.6671 25.8585 23.9866C25.8585 24.7143 26.1847 25.3462 26.7519 25.7171L27.0788 25.9309L26.9344 26.2578L26.79 26.5847H14.2594C5.60293 26.5847 1.66135 26.5593 1.51049 26.5027C1.39042 26.4577 1.26566 26.3796 1.23324 26.3292C1.15566 26.2089 1.15629 1.51072 1.23386 1.39034C1.2666 1.33944 1.38034 1.26356 1.48651 1.22168C1.76572 1.11171 38.1951 1.10786 38.4881 1.21783ZM5.86464 3.12364C5.71417 3.27216 5.63004 3.45516 5.5898 3.7213C5.51215 4.2349 5.38317 4.52108 5.07146 4.87151C4.69733 5.29218 4.29219 5.51868 3.69151 5.64299C3.30535 5.72289 3.11864 5.80571 2.98896 5.95447L2.8124 6.15714V13.8705V21.5839L3.0313 21.8C3.17262 21.9394 3.37332 22.0357 3.59769 22.0716C4.6703 22.2432 5.35825 22.8922 5.58144 23.9432C5.66238 24.3244 5.74628 24.5087 5.89698 24.6367L6.10229 24.811H14.9542C23.7913 24.811 23.8066 24.8107 24.012 24.6511C24.2812 24.4422 24.2871 24.1011 24.0261 23.8435L23.8344 23.6542H15.2827H6.73093L6.67602 23.4036C6.6011 23.0615 6.28048 22.4489 5.98854 22.0904C5.66699 21.6953 4.92241 21.2134 4.40391 21.0646L3.98423 20.9441V13.867V6.78989L4.31625 6.69187C5.45926 6.35448 6.4472 5.36012 6.67594 4.31695L6.73093 4.06632H19.9184H33.1059L33.2382 4.47119C33.5995 5.57636 34.5422 6.46399 35.6042 6.6992L36.0144 6.78996V11.7799C36.0144 16.7114 36.0162 16.7723 36.1763 16.9731C36.2937 17.1205 36.4102 17.1763 36.6003 17.1763C36.7903 17.1763 36.9068 17.1205 37.0242 16.9731C37.1846 16.7721 37.1862 16.7151 37.1862 11.4635V6.15714L37.0097 5.95462C36.8749 5.79977 36.7017 5.72736 36.2748 5.64708C35.9677 5.58924 35.5813 5.47326 35.4162 5.38928C34.8017 5.07679 34.3687 4.43271 34.2541 3.66084C34.2136 3.38769 34.1405 3.24486 33.9683 3.10173L33.7369 2.90956H19.9091H6.0815L5.86464 3.12364ZM8.25244 7.00242C7.98339 7.21133 7.97183 7.59461 8.22737 7.83167L8.40822 7.99932H20.0102H31.6122L31.7822 7.82087C32.0225 7.56831 32.0065 7.20455 31.7461 7.00242L31.5403 6.84256H19.9993H8.4583L8.25244 7.00242ZM8.21643 10.1828C7.99753 10.4129 7.99495 10.7826 8.21088 10.9757C8.35947 11.1086 8.53181 11.1248 10.0197 11.1463C11.7891 11.1718 12.025 11.1345 12.1769 10.8052C12.3069 10.5237 12.2867 10.4042 12.0734 10.1937L11.8817 10.0044H10.134C8.40814 10.0044 8.38416 10.0066 8.21643 10.1828ZM13.9975 10.1828C13.7879 10.4032 13.7798 10.7001 13.977 10.9405L14.1263 11.1226H22.8747C31.368 11.1226 31.6279 11.1183 31.7876 10.9757C32.0125 10.7748 32.0046 10.3885 31.7712 10.172L31.5904 10.0044H22.8789H14.1674L13.9975 10.1828ZM8.21643 13.3447C7.97613 13.5972 7.99206 13.961 8.25244 14.1631L8.4583 14.323H19.9993H31.5403L31.7461 14.1631C32.0152 13.9542 32.0268 13.5709 31.7712 13.3339L31.5904 13.1662H19.9884H8.38635L8.21643 13.3447ZM32.2368 17.4374C32.5057 17.5723 32.7642 17.6392 33.018 17.6395C33.6562 17.6402 33.9621 17.7643 34.2157 18.1254C34.647 18.7393 34.7828 18.8798 35.1988 19.1424C35.7065 19.4631 35.8581 19.7305 35.8581 20.3053C35.8581 20.6401 35.9223 20.8833 36.1315 21.3407C36.2819 21.6694 36.405 21.9818 36.405 22.0347C36.405 22.0877 36.2819 22.4 36.1315 22.7288C35.9223 23.1862 35.8581 23.4293 35.8581 23.7642C35.8581 24.3149 35.7086 24.6029 35.2895 24.8595C34.8205 25.1466 34.6269 25.3343 34.3303 25.7893C34.1869 26.0093 34.0062 26.2215 33.9287 26.2608C33.8512 26.3001 33.5255 26.3529 33.2047 26.3782C32.7687 26.4126 32.5071 26.4834 32.1685 26.6587C31.5987 26.9535 31.2892 26.9544 30.7038 26.6627C30.3742 26.4985 30.0776 26.4183 29.671 26.3837C28.9783 26.3247 28.8195 26.2337 28.471 25.6959C28.2963 25.4263 28.0342 25.1669 27.7322 24.9644C27.4749 24.7919 27.2154 24.574 27.1558 24.4802C27.0962 24.3864 27.0306 24.0566 27.01 23.7473C26.9812 23.3143 26.9163 23.079 26.728 22.7244C26.4222 22.1485 26.4216 21.922 26.7248 21.3512C26.9095 21.0032 26.9787 20.751 27.0202 20.274C27.0811 19.5748 27.1857 19.4093 27.7861 19.0618C27.9896 18.9442 28.2464 18.6865 28.4385 18.4074C28.6126 18.1543 28.8386 17.8931 28.9407 17.827C29.0428 17.761 29.4017 17.6796 29.7384 17.646C30.1193 17.608 30.4833 17.518 30.702 17.4076C31.3731 17.0689 31.5076 17.0715 32.2368 17.4374ZM15.7986 17.305C15.744 17.3268 15.648 17.4424 15.5854 17.562C15.4388 17.8418 15.5523 18.1987 15.8273 18.3224C15.965 18.3844 17.1932 18.4102 19.9993 18.4102C22.8054 18.4102 24.0336 18.3844 24.1713 18.3224C24.4452 18.1993 24.5598 17.8418 24.4145 17.5643C24.3525 17.446 24.2449 17.3277 24.1753 17.3013C24.0249 17.2443 15.9424 17.2479 15.7986 17.305ZM30.822 18.4969C28.9163 18.7674 27.5325 20.6298 27.8083 22.5527C28.1624 25.0203 30.952 26.3596 33.1859 25.1346C34.2931 24.5273 34.9988 23.3141 34.9988 22.0176C34.9988 19.8257 33.0475 18.1809 30.822 18.4969ZM32.476 19.8845C33.945 20.5772 34.2948 22.5389 33.1558 23.6959C32.1367 24.731 30.4979 24.6919 29.5351 23.6094C29.1187 23.1411 28.9565 22.6998 28.9565 22.0347C28.9565 20.859 29.7147 19.9159 30.8573 19.6706C31.4308 19.5475 31.89 19.6082 32.476 19.8845ZM28.1283 27.091C28.3176 27.3161 28.6763 27.4405 29.3568 27.5168C29.7299 27.5587 30.115 27.6446 30.2126 27.7077C30.4202 27.8419 30.4507 27.7486 29.69 29.3048C29.4252 29.8466 29.1776 30.271 29.1398 30.2478C29.102 30.2248 28.9655 30.0237 28.8363 29.801C28.7073 29.5783 28.5128 29.3136 28.4042 29.2129C28.2224 29.0443 28.1641 29.0338 27.6642 29.0797C27.3657 29.107 27.0658 29.1505 26.9978 29.1763C26.9298 29.202 26.8741 29.19 26.8741 29.1495C26.8741 29.0132 27.8917 26.9703 27.9596 26.9703C27.9965 26.9703 28.0724 27.0246 28.1283 27.091ZM35.4933 28.0622C35.7805 28.6628 36.0065 29.1609 35.9954 29.169C35.9844 29.1772 35.703 29.1487 35.3702 29.1056C34.5858 29.0042 34.4683 29.0612 34.0586 29.7421C33.8784 30.0414 33.7149 30.2863 33.6952 30.2863C33.6483 30.2863 32.4989 27.9303 32.4989 27.8341C32.4989 27.7109 32.8975 27.5874 33.517 27.5189C34.0638 27.4583 34.6895 27.2295 34.8028 27.0485C34.8297 27.0054 34.8786 26.9703 34.9114 26.9703C34.9442 26.9703 35.206 27.4617 35.4933 28.0622Z" fill="#00A78E"/>
</svg>
