<svg width="40" height="40" viewBox="0 0 40 40" fill="none" xmlns="http://www.w3.org/2000/svg">
<path fill-rule="evenodd" clip-rule="evenodd" d="M0.9579 0.0976425C0.628548 0.217506 0.240876 0.58745 0.106571 0.909935C-0.0421184 1.26701 -0.0332064 2.50605 0.120721 2.87568C0.3701 3.47444 0.833445 3.75849 1.56087 3.75849H2.03305V14.1132V24.4678H1.521C0.464536 24.4678 0.000487149 25.0304 0.000487149 26.3113C0.000487149 27.2525 0.226336 27.7348 0.821328 28.0641C1.036 28.183 2.01327 28.1958 12.3717 28.2151L23.6876 28.2362V30.4674C23.6876 32.531 23.6997 32.7312 23.8493 33.1322L24.0109 33.5658L23.7649 34.0671C23.5383 34.5291 23.5012 34.7245 23.2916 36.5586C23.0188 38.9452 23.0136 39.1572 23.2198 39.492C23.5468 40.0229 23.231 39.9999 30.1762 39.9999C37.1213 39.9999 36.8055 40.0229 37.1325 39.492C37.3355 39.1624 37.332 38.9224 37.094 36.866C36.9869 35.9405 36.8996 35.0933 36.8999 34.9833C36.9005 34.8083 36.9575 34.7655 37.3558 34.6409C38.5767 34.2592 39.6094 33.1101 39.9138 31.7943C40.0287 31.2982 40.0287 30.8659 39.9141 26.5858C39.8454 24.0187 39.7516 21.7066 39.7056 21.4477C39.4557 20.0396 38.3431 18.8629 36.925 18.5068L36.5989 18.4249L36.5732 17.4085C36.5498 16.4852 36.5317 16.3762 36.3759 16.22C36.1652 16.0089 35.7869 15.9953 35.5713 16.191C35.4313 16.3182 35.4139 16.4317 35.4139 17.2193C35.4139 17.7062 35.3875 18.1194 35.3553 18.1376C35.239 18.203 32.975 17.6665 32.9061 17.5573C32.8678 17.4966 32.836 17.2869 32.8353 17.0911C32.8342 16.7666 32.8689 16.7008 33.2288 16.3459C33.718 15.8635 34.0343 15.377 34.2511 14.7736C34.3854 14.3999 34.4255 14.0701 34.456 13.0838L34.4939 11.8584L34.9344 12.0293L35.3748 12.2003L35.4139 13.3986C35.4488 14.4683 35.4693 14.6089 35.6047 14.708C35.8311 14.8738 36.2247 14.8469 36.3985 14.6537C36.5378 14.4991 36.5474 14.3416 36.5465 12.2416C36.5457 10.3482 36.5231 9.89842 36.4033 9.38202C36.1121 8.12769 35.2328 6.7568 34.2554 6.03338L33.7785 5.68038L33.7754 4.71944L33.7722 3.75849H34.2557C35.2962 3.75849 35.8075 3.22554 35.8671 2.07915C35.9217 1.02792 35.6577 0.446171 34.9872 0.14063C34.6838 0.00225397 34.0104 -0.00323715 17.9417 0.000841961C5.29264 0.00405819 1.15021 0.02767 0.9579 0.0976425ZM34.6294 1.32153C34.7408 1.53043 34.7315 2.3723 34.6165 2.48769C34.5441 2.56033 30.7236 2.58182 17.8954 2.58182C2.8055 2.58182 1.26364 2.57037 1.22057 2.45772C1.13583 2.2362 1.16983 1.36138 1.26693 1.26396C1.33932 1.19132 5.15248 1.16982 17.9546 1.16982C34.2804 1.16982 34.5498 1.17225 34.6294 1.32153ZM32.5996 4.42527C32.5996 4.792 32.5787 5.09205 32.553 5.09205C32.5274 5.09205 32.3075 5.03023 32.0644 4.95477C31.4218 4.75521 28.9496 4.75999 28.2218 4.9623C26.1583 5.53565 24.5571 7.1502 23.9803 9.23894C23.8232 9.80797 23.8134 10.0526 23.7845 14.1314L23.7541 18.4247L23.4277 18.5044C22.8285 18.6506 22.0998 19.0723 21.6415 19.5378C20.8968 20.2942 20.638 21.0171 20.5137 22.6889C20.4767 23.1853 20.4461 23.294 20.353 23.2581C20.2896 23.2337 19.5674 22.7498 18.7479 22.1828C17.9284 21.6158 17.0578 21.0242 16.8132 20.8683C16.5686 20.7124 16.1484 20.4368 15.8795 20.2559C15.0579 19.7032 14.286 19.6421 13.5541 20.0717L13.3098 20.215L11.3349 18.8507C10.0445 17.9591 9.291 17.4863 9.16084 17.4863C8.67224 17.4863 8.41364 18.1538 8.77567 18.4807C8.87237 18.5681 9.78327 19.2131 10.7998 19.9141L12.648 21.1886L12.5722 21.4644C12.3815 22.1573 12.7941 23.1187 13.4889 23.5999C13.7056 23.7501 13.9779 24.0067 14.094 24.1704L14.3051 24.4678H10.5173H6.72966L6.57026 24.6396C6.27593 24.9565 6.39578 25.4123 6.81175 25.5578C6.98178 25.6173 8.49306 25.6445 11.6239 25.6445H16.1882L17.2007 26.2917C17.7575 26.6476 18.2137 26.9653 18.2142 26.9977C18.2149 27.0301 14.4403 27.0565 9.82642 27.0565C3.16135 27.0565 1.4096 27.036 1.30156 26.9567C1.18922 26.8744 1.1696 26.7548 1.18891 26.2703L1.2122 25.6837L3.01024 25.643C3.99916 25.6206 4.87081 25.5723 4.94727 25.5357C5.23581 25.3976 5.33033 24.9383 5.12754 24.6593C5.03256 24.5287 4.89075 24.5015 4.1308 24.4678L3.24476 24.4286L3.22467 14.1916C3.21357 8.56126 3.22131 3.91052 3.24171 3.85655C3.27134 3.77857 6.28297 3.75849 17.9393 3.75849H32.5996V4.42527ZM32.0535 6.17741C33.4953 6.6436 34.6937 7.83737 35.1317 9.24349C35.3519 9.95035 35.4705 10.8969 35.3389 10.8969C35.1705 10.8969 34.669 10.5948 34.407 10.3354C34.2616 10.1916 34.0379 9.8876 33.9099 9.65995C33.6746 9.24153 33.5031 9.09272 33.2562 9.09272C33.1817 9.09272 32.7484 9.33566 32.2934 9.63249C30.7841 10.6173 29.3574 11.2364 28.0088 11.4917C27.1763 11.6493 25.8772 11.6066 25.3005 11.4027L24.9199 11.2681L24.9756 10.5532C25.0765 9.25949 25.4979 8.27383 26.3088 7.43503C26.9893 6.73107 27.7812 6.2804 28.7072 6.07001C29.4565 5.89971 31.3865 5.96168 32.0535 6.17741ZM5.90273 6.12328C5.52131 6.33422 5.44954 6.66729 5.71299 7.00335L5.87497 7.21005H13.474C21.9706 7.21005 21.4205 7.24755 21.4205 6.66862C21.4205 6.46616 21.3681 6.32386 21.256 6.22204C21.0969 6.07755 20.8434 6.07198 13.5752 6.05472C8.21578 6.04201 6.0142 6.0617 5.90273 6.12328ZM5.94893 10.1974C5.54257 10.3617 5.44243 10.7374 5.71299 11.0825L5.87497 11.2892H13.5184C20.8239 11.2892 21.1675 11.2828 21.2911 11.1457C21.4768 10.9398 21.4578 10.4845 21.256 10.3012C21.0969 10.1567 20.8459 10.1512 13.6143 10.1365C8.92233 10.1269 6.06713 10.1496 5.94893 10.1974ZM33.2901 12.5054L33.2641 14.1563L33.0069 14.6802C32.5292 15.6534 30.9207 16.9372 30.1791 16.9372C29.768 16.9372 29.1933 16.6198 28.5476 16.0363C27.547 15.1319 27.2247 14.6468 27.1621 13.9509C27.143 13.7381 27.1114 13.3876 27.0919 13.1718C27.0588 12.8057 27.0683 12.7796 27.2345 12.7796C27.6278 12.7796 28.9271 12.5128 29.5884 12.2962C30.4402 12.0174 31.4733 11.5317 32.3628 10.992C32.9905 10.6112 33.0327 10.5971 33.1706 10.7224C33.3054 10.8449 33.3142 10.9761 33.2901 12.5054ZM25.5753 12.6707C25.9047 12.726 25.9547 12.8596 25.9547 13.6833C25.9547 14.6162 26.3394 15.4679 27.1566 16.3444C27.4779 16.689 27.518 16.772 27.517 17.0896C27.5163 17.2862 27.4845 17.4966 27.4463 17.5573C27.3773 17.6665 25.1133 18.203 24.9971 18.1376C24.9648 18.1194 24.9384 16.8494 24.9384 15.3152V12.526L25.1143 12.5744C25.2111 12.601 25.4185 12.6444 25.5753 12.6707ZM5.71299 14.4768C5.52678 14.7142 5.51544 14.8121 5.64201 15.0907C5.69963 15.2176 5.83596 15.3214 6.01334 15.3733C6.19627 15.4269 7.57904 15.447 9.99419 15.4314L13.6948 15.4075L13.8834 15.1874C14.1145 14.9178 14.121 14.7458 13.91 14.4768L13.748 14.2701H9.81149H5.87497L5.71299 14.4768ZM30.048 18.0927C30.4138 18.1216 30.6395 18.0905 30.997 17.9617C31.255 17.8688 31.5188 17.7762 31.5833 17.756C31.6617 17.7313 31.7491 17.8256 31.8469 18.0406C32.0922 18.5797 32.4436 18.7672 33.6876 19.023C34.9496 19.2824 34.9016 19.2126 34.4581 20.1463C34.1145 20.8695 33.4181 21.5412 32.5905 21.9479C31.7064 22.3822 31.1684 22.5067 30.1762 22.5067C29.1839 22.5067 28.646 22.3822 27.7619 21.9479C26.9374 21.5428 26.2396 20.8706 25.8916 20.1463C25.4619 19.2519 25.4359 19.2895 26.6583 19.0334C27.8816 18.7772 28.2266 18.5897 28.5174 18.0225L28.7044 17.6581L29.1362 17.8565C29.3835 17.97 29.7733 18.0711 30.048 18.0927ZM24.5027 19.7973C24.5879 20.2529 25.1416 21.2653 25.5669 21.7433C26.6912 23.0064 28.2979 23.6823 30.1762 23.6823C32.0544 23.6823 33.6611 23.0064 34.7854 21.7433C35.2107 21.2653 35.7645 20.2529 35.8497 19.7973C35.9083 19.4833 35.9601 19.4733 36.6288 19.6466C37.5513 19.886 38.2549 20.5626 38.4998 21.4462C38.659 22.0204 38.9038 31.0496 38.7733 31.5358C38.51 32.5173 37.7675 33.3176 36.8842 33.5717L36.6647 33.6349V29.6737C36.6647 27.0316 36.6371 25.6608 36.5818 25.5571C36.3808 25.1803 35.715 25.2231 35.5637 25.6226C35.5238 25.728 35.4921 27.5637 35.4921 29.7708V33.73L30.7038 33.7075C26.4146 33.6874 25.8911 33.6715 25.6811 33.5548C25.3712 33.3827 25.0465 33.0321 24.9434 32.7582C24.8893 32.6148 24.8602 31.3598 24.8602 29.1745C24.8602 27.3249 24.828 25.7266 24.7886 25.6226C24.6493 25.2549 24.0025 25.1767 23.7929 25.5024C23.7565 25.559 23.7091 25.923 23.6876 26.3113L23.6485 27.0173L22.4069 27.0389C20.5047 27.0721 20.6641 27.1305 18.0305 25.4372C16.7778 24.6318 15.7209 23.9445 15.682 23.9099C15.6419 23.8745 15.7289 23.7164 15.8823 23.546C16.0314 23.3804 16.2882 23.0259 16.4528 22.7581C16.6175 22.4904 16.7658 22.2714 16.7824 22.2714C16.799 22.2714 17.4711 22.7254 18.2762 23.2804C19.0811 23.8353 19.824 24.3335 19.9271 24.3875C20.1822 24.5212 20.8352 24.4485 21.0893 24.2582C21.5287 23.929 21.6022 23.7422 21.6784 22.7621C21.7178 22.2549 21.7976 21.6627 21.8559 21.4462C22.0876 20.5836 22.7946 19.8908 23.6876 19.6514C24.3651 19.4698 24.4441 19.4839 24.5027 19.7973ZM15.2442 21.2214C15.7575 21.5623 15.7506 21.7697 15.2011 22.5263C14.878 22.9711 14.6746 23.0037 14.223 22.6832C13.9159 22.4652 13.6809 22.0943 13.6815 21.8281C13.682 21.5829 13.9836 21.1703 14.2495 21.0511C14.5682 20.9082 14.8435 20.9553 15.2442 21.2214ZM25.4142 34.7223C25.7259 34.8462 26.2391 34.8634 30.7234 34.8999L35.6875 34.9402L35.8965 36.7052C36.0115 37.6759 36.1082 38.5496 36.1115 38.6467L36.1175 38.8232H30.1762C24.5691 38.8232 24.2349 38.8155 24.2369 38.6859C24.238 38.6104 24.3376 37.7014 24.4581 36.666C24.6789 34.7698 24.7796 34.344 24.9702 34.5026C25.0246 34.548 25.2245 34.6468 25.4142 34.7223Z" fill="#00A78E"/>
</svg>
