<svg width="41" height="40" viewBox="0 0 41 40" fill="none" xmlns="http://www.w3.org/2000/svg">
<path fill-rule="evenodd" clip-rule="evenodd" d="M18.5936 0.115771C16.9208 0.313419 15.4269 0.751154 13.8135 1.51619C9.3164 3.64883 6.20593 7.69168 5.37312 12.4867C5.28071 13.0187 5.20512 13.5374 5.20512 13.6394V13.825H3.01483C0.870981 13.825 0.818771 13.8288 0.552431 14.0024C-0.0310163 14.3828 0.000294152 13.9718 0.000294152 21.2496C0.000294152 28.5273 -0.0310163 28.1163 0.552431 28.4967C0.822935 28.6731 0.841433 28.6741 3.75555 28.6738C6.53898 28.6735 6.69969 28.6657 6.94753 28.5182C7.09111 28.4328 7.2801 28.2483 7.36762 28.1082C7.52313 27.8594 7.52682 27.7014 7.52706 21.2383C7.5273 17.173 7.55989 14.3112 7.6117 13.8138C7.91592 10.8938 9.11925 8.333 11.1579 6.26734C13.0943 4.30516 15.3721 3.09168 18.1255 2.55508C18.8555 2.41284 19.2891 2.38111 20.5 2.38111C22.1502 2.38111 23.1322 2.52429 24.523 2.96788C28.8231 4.33931 32.1868 7.97006 33.1416 12.2708C33.4572 13.693 33.4838 14.4929 33.4555 21.7185L33.4284 28.635L33.2099 29.4165C32.3764 32.3976 29.883 34.5982 26.8298 35.0474C26.4094 35.1093 25.6259 35.1601 25.0889 35.1603L24.1122 35.1608L23.8171 34.6126C23.3243 33.6975 22.3693 32.9672 21.3719 32.7428C20.9214 32.6414 20.0786 32.6414 19.6281 32.7428C17.9968 33.1098 16.7406 34.6544 16.7373 36.2971C16.7327 38.5591 18.8514 40.327 21.1135 39.9488C22.2531 39.7583 23.3514 38.9727 23.8285 38.0066L24.0635 37.5308L25.5049 37.487C27.0545 37.4399 27.7788 37.3272 28.926 36.9549C31.6745 36.063 34.0163 33.8978 35.11 31.2374C35.3579 30.6342 35.6346 29.6561 35.7521 28.9672L35.8022 28.6741H37.9888C40.1289 28.6741 40.1813 28.6703 40.4476 28.4967C41.031 28.1163 40.9997 28.5273 40.9997 21.2496C40.9997 13.9718 41.031 14.3828 40.4476 14.0024C40.1812 13.8288 40.129 13.825 37.9852 13.825H35.7949V13.6394C35.7949 13.5374 35.7193 13.0187 35.6269 12.4867C34.7952 7.69793 31.6848 3.6518 27.1911 1.51299C24.489 0.226826 21.611 -0.240841 18.5936 0.115771ZM13.6315 13.9381C12.1544 14.2872 10.837 15.5535 10.4527 16.9935C10.2649 17.6971 10.2896 18.4319 10.5119 18.7566C11.1589 19.7019 12.5404 19.3093 12.6914 18.1373C12.7853 17.4084 12.8987 17.1576 13.3217 16.7443C13.7983 16.2787 14.2034 16.1359 14.9075 16.1856C15.7784 16.2472 16.4855 16.8744 16.6732 17.7522L16.7694 18.2016L13.926 20.9956C10.9021 23.9669 10.7581 24.1404 10.449 25.1855C10.2487 25.8629 10.3066 26.7195 10.5716 26.9963C10.9877 27.4308 10.9172 27.4236 14.7504 27.4233C18.7703 27.423 18.642 27.4422 18.984 26.788C19.2697 26.2414 19.1099 25.6894 18.5475 25.2793C18.3368 25.1256 18.2071 25.117 15.7697 25.0945C14.3635 25.0816 13.2129 25.0415 13.2129 25.0057C13.2129 24.9698 14.4907 23.7144 16.0526 22.2158C18.0085 20.339 18.9306 19.4007 19.0154 19.2006C19.1721 18.8312 19.1731 17.944 19.0177 17.2247C18.6773 15.6495 17.4045 14.3543 15.7975 13.9478C15.2235 13.8027 14.2236 13.7982 13.6315 13.9381ZM28.3476 13.911C28.2375 13.9528 26.7738 15.331 25.0949 16.9736C22.0933 19.9101 22.0368 19.9713 21.7102 20.6328C21.2661 21.5325 21.1246 22.3883 21.3323 22.9188C21.4161 23.1331 21.5765 23.3513 21.7274 23.4564C21.9781 23.6309 22.0186 23.6335 24.798 23.6556L27.6145 23.6779L27.6408 25.1405C27.6632 26.3924 27.6881 26.6368 27.8138 26.8375C28.0739 27.2524 28.333 27.3846 28.8868 27.3846C29.3572 27.3846 29.4034 27.3676 29.6876 27.0904L29.9892 26.7962L30.0293 25.2569L30.0693 23.7175L30.3276 23.6661C30.9104 23.5501 31.3097 23.0826 31.3102 22.5156C31.3108 21.9114 30.9222 21.4471 30.34 21.3562L30.0341 21.3085L30.0117 17.8856L29.9892 14.4627L29.789 14.2537C29.4009 13.8484 28.8545 13.7184 28.3476 13.911ZM5.12504 21.2496V26.3295H3.76372H2.40239V21.2496V16.1696H3.76372H5.12504V21.2496ZM38.5976 21.2496V26.3295H37.2363H35.875V21.2496V16.1696H37.2363H38.5976V21.2496ZM27.6269 19.6084V21.3277H25.8459H24.0648L25.8252 19.6084C26.7934 18.6627 27.5948 17.889 27.6062 17.889C27.6176 17.889 27.6269 18.6627 27.6269 19.6084ZM21.2878 35.23C22.0923 35.789 22.0127 37.0333 21.1438 37.4817C20.7014 37.7101 20.2986 37.7101 19.8562 37.4817C19.4425 37.2682 19.1387 36.7753 19.1387 36.3177C19.1387 35.7987 19.5157 35.259 20.0195 35.0567C20.2874 34.9491 21.0296 35.0505 21.2878 35.23Z" fill="#00A78E"/>
</svg>
