<svg width="35" height="40" viewBox="0 0 35 40" fill="none" xmlns="http://www.w3.org/2000/svg">
<path fill-rule="evenodd" clip-rule="evenodd" d="M6.48693 0.0704172C6.02645 0.211251 5.69807 0.505894 3.28733 2.94173C0.883816 5.37023 0.741518 5.52997 0.624102 5.93184C0.512441 6.31363 0.5 7.78981 0.5 20.6078C0.5 33.256 0.513452 34.8917 0.619592 35.1471C0.780708 35.5346 0.946489 35.7088 1.31646 35.8796C1.61296 36.0165 2.08518 36.0233 11.4251 36.0256L21.2226 36.028L21.5624 36.5815C23.0726 39.0418 26.0639 40.3955 28.8911 39.8978C31.6562 39.411 33.8351 37.5188 34.6602 34.8875C35.9861 30.6592 33.2955 26.2069 28.9631 25.4602L28.4153 25.3658L28.4134 13.3654C28.4123 6.44298 28.3816 1.23539 28.3409 1.05852C28.2486 0.658998 28.0444 0.390147 27.6693 0.174519L27.3655 0L17.0237 0.00539266C11.3356 0.00844068 6.59408 0.0376704 6.48693 0.0704172ZM27.0156 13.3466V25.3671L26.4519 25.4626C23.6129 25.943 21.2735 28.1747 20.601 31.0439C20.3656 32.0481 20.3681 32.9863 20.6098 34.4049L20.6598 34.698H11.2408H1.82189V20.6693V6.64055H3.65964C5.7305 6.64055 5.94138 6.60397 6.44657 6.15701C7.07556 5.60055 7.10946 5.45471 7.10946 3.30734C7.10946 2.27492 7.13279 1.40678 7.16133 1.37818C7.18979 1.34949 11.6687 1.32605 17.1144 1.32605H27.0156V13.3466ZM5.78757 3.63512C5.78757 4.90388 5.78399 4.93186 5.59667 5.12005C5.4092 5.30856 5.38276 5.31192 4.1006 5.31192H2.79543L4.27128 3.82699C5.083 3.01027 5.75623 2.34205 5.76735 2.34205C5.77847 2.34205 5.78757 2.92391 5.78757 3.63512ZM8.70001 7.53581C8.46495 7.77199 8.44582 8.1859 8.65771 8.44897L8.80639 8.63349L16.7106 8.65412L24.6149 8.67475L24.8433 8.44521C25.1393 8.14768 25.1397 7.86922 24.8444 7.57238L24.6171 7.34394H16.7539H8.89083L8.70001 7.53581ZM4.03451 12.2251C3.78731 12.4735 3.78607 12.8169 4.03124 13.1035L4.21895 13.3228L14.3537 13.3416C22.425 13.3567 24.528 13.3403 24.6829 13.2612C25.0865 13.055 25.1636 12.5164 24.8364 12.1876C24.685 12.0354 24.5353 12.0332 14.4541 12.0332H4.22533L4.03451 12.2251ZM4.26016 16.7218C3.83708 16.8934 3.71617 17.4611 4.03451 17.7811L4.22533 17.9729H14.4541C24.5353 17.9729 24.685 17.9708 24.8364 17.8186C25.1636 17.4898 25.0864 16.9506 24.6829 16.7455C24.5291 16.6672 22.3954 16.6474 14.4576 16.6504C8.94067 16.6525 4.35184 16.6846 4.26016 16.7218ZM4.19352 21.428C3.79478 21.6578 3.7192 22.1535 4.03451 22.4703L4.22533 22.6622H14.4212H24.6171L24.8444 22.4338C25.1393 22.1373 25.1393 21.8585 24.8444 21.562L24.6171 21.3336L14.4831 21.3359C7.00729 21.3377 4.30822 21.3619 4.19352 21.428ZM4.03451 26.2147C3.68374 26.5672 3.85403 27.1968 4.33178 27.3137C4.4268 27.337 8.15143 27.3462 12.6087 27.3342L20.7129 27.3124L20.8861 27.1383C21.1414 26.8818 21.1222 26.4477 20.845 26.2081L20.6307 26.0229H12.4281H4.22533L4.03451 26.2147ZM29.2429 26.8857C30.2696 27.1491 31.4291 27.8533 32.121 28.6335C34.1966 30.9742 34.1843 34.4632 32.0925 36.7342C29.7199 39.3099 25.7131 39.3122 23.343 36.7392C20.6662 33.8331 21.4808 29.1888 24.9881 27.3602C26.3187 26.6664 27.7616 26.5055 29.2429 26.8857ZM25.2989 30.2372C24.8823 30.6559 24.9531 30.8367 25.9244 31.8358L26.7771 32.713L25.9244 33.5673C25.182 34.3113 25.0717 34.4553 25.0717 34.6806C25.0717 35.0428 25.3636 35.3232 25.7407 35.3232C26.0014 35.3232 26.1061 35.2459 26.8717 34.4876L27.7154 33.6519L28.5592 34.4876C29.304 35.2254 29.4344 35.3232 29.672 35.3232C30.1036 35.3232 30.4518 34.8799 30.328 34.488C30.3032 34.4093 29.9163 33.9777 29.4683 33.529L28.6537 32.713L29.5064 31.8358C30.2503 31.0708 30.3589 30.9255 30.3567 30.6986C30.354 30.4094 30.2491 30.2357 29.995 30.0996C29.6403 29.9098 29.5011 29.9879 28.5977 30.8837L27.7154 31.7585L26.8332 30.8837C25.8421 29.9009 25.6952 29.839 25.2989 30.2372ZM4.0048 30.9181C3.79112 31.1911 3.801 31.5133 4.03124 31.7824L4.21887 32.0017L10.8934 32.0243C14.5644 32.0368 17.6837 32.0261 17.825 32.0004C18.1914 31.9341 18.3844 31.71 18.3844 31.351C18.3844 31.1395 18.3318 31.0022 18.2045 30.882L18.0245 30.7121H11.0952H4.16592L4.0048 30.9181Z" fill="#00A78E"/>
</svg>
